<svg version="1.1" xmlns="http://www.w3.org/2000/svg" id="Layer_1" viewBox="0 0 450 300">
  <style type="text/css">
    .st0{fill:#D9D9D9;} .st1{fill:#DFDFDF;} .st2{fill:#E6E6E6;} .st3{fill:#F2F2F2;} .st4{fill:#D2D2D2;}
  </style>
  <path d="M171.6 197.8c8.2 0 12.3 6 12.3 13.8 0 1.5-.2 2.9-.3 3.6h-17.4c.8 4.4 3.7 6.3 7.5 6.3 2.1 0 4.1-.6 6.2-1.9l2.8 5.2c-3 2-6.8 3.3-10.2 3.3-8.2 0-14.6-5.6-14.6-15.1.1-9.5 6.8-15.2 13.7-15.2zm5 12.1c0-3.3-1.4-5.6-4.8-5.6-2.7 0-5 1.8-5.6 5.6h10.4zm13.8-20.5h8.6v15.5h.2l11.3-15.5h9.4l-11.4 15.1 13.6 22.8h-9.4l-9.2-16-4.4 5.8v10.2h-8.6v-37.9h-.1zm35.6 0h10.7c11.6 0 19 5.8 19 18.8s-7.4 19.1-18.5 19.1H226v-37.9zm10.2 31c6.4 0 10.7-3.1 10.7-12.2s-4.4-11.8-10.7-11.8h-1.6v24h1.6zm43.5-31.7c5.3 0 9.2 2.4 11.8 4.9l-4.7 5.3c-1.9-1.7-3.7-2.8-7-2.8-5.8 0-10 4.6-10 12.2 0 7.8 3.5 12.3 10.7 12.3 1.5 0 3.1-.4 4-1.2v-6.5h-6.3v-7h13.9v17.4c-2.7 2.4-7.4 4.6-12.7 4.6-10.2 0-18.4-6.7-18.4-19.4 0-12.5 8.4-19.8 18.7-19.8z" class="st0"/>
  <path d="M217.7 140.3c-3.3-4.2-11.7-9.9-18.2-12.1-8.7-3-21.5-4.5-37.6-4.5h-15.6l-4-4.8c-3.6-4.2-11.3-15.5-11.3-16.5 0-.2 2.6.5 5.7 1.6 5.1 1.7 7.4 1.8 19.8 1.2 16.5-.8 23.3.4 35.4 6.1 9.2 4.4 22.3 16.9 26.1 24.9 1.3 2.8 2.8 5.3 3.3 5.6.5.4.5.9-.1 1.3-.5.3-2.1-.9-3.5-2.8z" class="st1"/>
  <path d="M220.3 136.4c-2.5-4.8-6.2-9.7-11.3-14.8-10.4-10.5-18.6-14.7-33.9-17.8l-8.4-1.7-1.9-5.4c-1.6-4.8-3.4-13.1-5.2-23.7l-.5-3.2 5.2 1.6c8.2 2.4 22.6 9.9 29.4 15.3 13.4 10.8 24.1 27.6 28.6 45.3 1.2 4.8 2.5 8.7 2.8 8.7s1.5-3.8 2.7-8.4c7.4-30 28.5-52 58.7-61l4.3-1.4-.5 3.7c-1 7.5-3.3 17.8-5.1 23.1-1.9 5.4-1.9 5.5-6.8 6.3-9.1 1.6-20.3 5.6-26.9 9.7-8.2 5.3-17.6 15.5-21.6 23.6-1.7 3.4-3.7 6.5-4.5 6.8-.9.3-2.6-1.9-5.1-6.7z" class="st2"/>
  <path d="M231.3 137.5c4.7-9.4 17.2-21.5 26.7-26.1 11.3-5.5 19.7-6.9 36.5-6.1 12.6.5 14.5.4 19.2-1.4l5.2-2-2.4 4.7c-1.3 2.6-4.7 7.5-7.5 10.9l-5.2 6.2h-15.6c-28.9 0-43.6 4.1-54.3 15.1-2.6 2.7-5 4.9-5.3 4.9s.9-2.8 2.7-6.2z" class="st1"/>
  <path d="M222.7 126.4c-3.3-11.2-10.5-23.8-18.2-32.2-3.4-3.7-3.6-4.2-3-8.4 1.8-11.7 8.2-23.5 18-33.1l5.6-5.5 7.4 7.6c8.4 8.8 13.7 18.6 15.6 28.9l1.1 6.5-3.7 4c-7.7 8.3-15.9 23.3-18.5 33.8-.7 2.6-1.5 4.7-1.9 4.7-.3 0-1.4-2.8-2.4-6.3z" class="st3"/>
  <path d="M214.5 161.1c-30-12.5-68.8-12.9-101.8-1l-9.9 3.5-4.8-3.7c-2.7-2-4.8-4.1-4.6-4.7.5-1.8 17.6-8.5 29.1-11.5 16.7-4.3 26.7-5.3 45.5-4.7 17.2.6 27.4 2.3 42.3 7 6.2 2 8.5 2.3 11.2 1.6 2.3-.7 4.8-.6 7.5.1 2.6.7 4.6.7 5.8.1 3.2-1.7 24.4-7 32.5-8 18.8-2.6 43.3-.9 62.2 4.3 10 2.7 26.7 9.5 27.1 11.1.2.6-1.9 2.7-4.6 4.7l-4.8 3.7-9.9-3.5c-33.2-12-70.7-11.5-102.4 1.1-4.7 1.9-9.5 3.4-10.5 3.4-1.1-.1-5.5-1.6-9.9-3.5z" class="st4"/>
  <path d="M209.6 144.1c-15.1-5.3-25.5-6.8-47.1-6.8-16.6 0-21.7.4-30 2.1-5.5 1.2-10.7 2.4-11.5 2.7-1.1.5-2.4-1.7-5.4-9.1-2.2-5.4-4.3-10.2-4.8-10.7-2.1-2.5-.4-2.4 3.9.1l4.8 2.8 30 .1c26.2.1 31.2.4 39.7 2.2 11.5 2.4 20.2 6.7 25.8 12.8 6.5 7 5.6 7.6-5.4 3.8zm21.4 1.6c0-2.1 9.8-10.9 15.1-13.5 10.7-5.5 21.1-6.8 54.4-6.9 29.2-.1 30.1-.2 33.8-2.3 2.1-1.3 4.2-2.3 4.6-2.3.5 0-1.2 4.9-3.8 11-3.5 8.3-5 10.8-6.1 10.4-.8-.3-6-1.5-11.5-2.7-8.3-1.7-13.4-2.1-30-2.1-21.6 0-31.5 1.4-47.4 6.9-8.4 2.8-9.1 2.9-9.1 1.5z" class="st0"/>
</svg>